<svg width="264" height="98" viewBox="0 0 264 98" fill="none" xmlns="http://www.w3.org/2000/svg">
  <path fill-rule="evenodd" clip-rule="evenodd" d="M97.943 61.0358C95.5271 63.4569 91.7935 64.4632 91.3443 66.4161C90.6554 69.425 90.0365 73.3506 89.6272 76.6385C89.2478 79.6475 89.6571 80.0161 88.9683 81.5405C88.3893 82.8158 86.6323 96.1867 86.6523 97.4022C90.7852 97.3026 108.315 97.741 110.651 97.2428L113.087 88.0566C113.497 86.6517 113.886 84.8783 114.245 83.304C114.635 81.5804 114.704 79.7072 115.553 78.6212C116.382 77.5452 117.24 76.7182 118.179 75.5824L120.954 72.414C122.152 71.1188 125.406 66.8545 126.914 66.426C128.571 68.6578 130.547 70.2022 132.374 72.2945C137.186 77.8142 138.743 77.3658 139.382 82.6066C139.592 84.3602 140.111 85.7052 140.431 87.4289L142.277 97.2329C144.873 97.6613 162.563 97.4222 166.526 97.4022C166.496 93.7756 165.658 93.6759 165.438 89.6408L163.701 78.0234C163.182 76.5787 162.223 67.7312 162.064 66.0275L157.831 63.3075C156.932 62.7495 154.816 61.2152 154.377 60.448C152.76 58.9236 148.277 56.8911 147.189 55.4065C150.354 53.5434 153.389 51.6503 156.593 49.6975C158.13 48.7609 159.638 47.7746 161.285 46.8181C163.431 45.5726 162.832 45.8118 163.172 41.0891C163.501 36.4761 163.821 31.6338 164.2 27.0307C164.539 22.866 165.328 16.7386 165.178 12.7333L150.693 6.50615L149.875 7.4726C149.315 6.59582 149.795 6.59582 149.076 5.76885C147.848 6.34673 147.039 9.76418 146.131 11.0495L144.793 4.14482C144.244 3.77617 144.314 3.84592 143.665 3.53705L134.99 0.0199732C134.361 6.93457 134.271 19.06 134.181 26.7617C134.141 29.7906 134.091 29.2327 132.504 30.767C131.506 31.7335 127.722 35.6292 126.594 36.2867C125.346 35.5694 121.972 32.0922 120.784 30.9364C119.496 29.671 119.007 29.7209 118.967 27.3097L118.189 0.0100098L87.9401 12.6237C87.8203 16.6389 88.6688 22.6767 88.9483 26.7717L90.1962 44.4966C90.356 46.1605 90.5556 46.0608 91.7136 46.7483C95.5172 48.9901 103.054 53.9419 105.999 55.3866C104.941 56.901 98.7716 59.7904 97.943 61.0458V61.0358Z" fill="#F7B006"/>
  <path fill-rule="evenodd" clip-rule="evenodd" d="M18.7081 54.2805C18.7081 52.7561 18.6981 51.2118 18.6682 49.6874C18.6083 46.9076 18.5783 47.9239 19.5566 46.1604L30.3582 46.4892L30.5679 59.601L18.758 60.2486L18.7181 54.2706L18.7081 54.2805ZM-2.6783e-05 29.0632L0.259531 97.6014C2.01654 98.0796 17.1308 97.8704 19.8761 97.7309L19.1972 75.8712L44.1647 74.2771C45.8318 71.9357 47.519 68.6478 49.0264 66.1669C50.5438 63.676 50.2244 64.0945 50.1046 60.7568C50.0347 58.6545 49.9349 56.5821 49.845 54.5595C49.6753 50.3849 49.4457 46.27 49.3259 42.1451C49.1462 36.3265 49.7951 38.0103 45.143 33.3275C38.0052 26.1539 42.7371 27.9373 25.237 28.306C20.9343 28.3956 16.8013 28.5351 12.5286 28.6447C8.76503 28.7443 3.6238 28.6248 -0.0100098 29.0632H-2.6783e-05Z" fill="#F9B107"/>
  <path fill-rule="evenodd" clip-rule="evenodd" d="M171.388 31.2352C171.388 42.5735 171.827 54.0414 172.027 65.3499C172.077 68.2293 172.676 88.6941 172.376 90.5672C171.987 92.9385 171.218 95.3696 170.999 97.6911C174.433 98.0298 211.08 98.0398 212.677 97.5815L213.197 80.3747L191.364 80.9625L191.244 71.3777L205.699 71.577L205.899 54.8584L190.625 54.9182C190.675 44.0581 189.816 45.8017 195.527 45.7518C199.56 45.722 207.766 45.9113 210.881 45.6024L211.31 27.5786C204.571 27.3196 196.864 27.8875 190.116 28.017C186.572 28.0867 183.008 28.0967 179.464 28.2462C173.105 28.5152 176.399 27.9771 171.398 31.2352H171.388Z" fill="#F7B006"/>
  <path fill-rule="evenodd" clip-rule="evenodd" d="M221.323 27.9772C220.494 30.7471 221.343 85.0376 220.524 89.7802C220.115 92.1415 219.256 95.4095 219.206 97.7509L252.559 97.7708C255.025 97.7708 261.494 98.0697 263.491 97.6114L264.01 77.4057L243.056 77.8839L245.811 27.0706L221.333 27.9673L221.323 27.9772Z" fill="#F9B107"/>
  <path fill-rule="evenodd" clip-rule="evenodd" d="M57.9312 52.6864C57.5119 55.3964 58.081 81.8492 58.1309 86.9405C58.1608 90.7665 57.5818 94.0743 57.502 97.6711L78.9853 97.7707L78.7258 48.6213C76.5195 48.5914 61.7447 52.0487 57.9312 52.6864Z" fill="#F7B006"/>
  <path fill-rule="evenodd" clip-rule="evenodd" d="M139.033 53.2045C139.911 54.2208 150.394 60.8465 152.839 62.3808C154.307 63.3074 154.107 65.2403 154.646 68.3987C156.174 77.3259 157.482 86.2332 158.699 95.3597L164.18 95.6287C164.14 93.5663 160.706 72.0653 160.327 69.7239C159.508 64.6226 160.996 66.2765 153.668 61.504C150.553 59.4715 147.658 57.5386 144.673 55.6555C145.542 54.44 147.588 53.6429 149.116 52.7263L158.11 47.1667C161.065 45.3833 160.247 46.0309 160.546 42.0655C160.896 37.4026 161.185 33.0486 161.505 28.3757C161.794 24.1313 162.593 18.8408 162.493 14.6063C161.614 13.9587 157.811 12.4742 156.773 12.3247C156.174 16.2104 155.954 21.8995 155.734 25.9447C155.495 30.3983 155.006 35.0512 154.746 39.4351C154.527 43.1315 155.315 43.0917 152.63 44.646C150.733 45.7519 139.522 52.2281 139.033 53.2045Z" fill="#FEEA05"/>
  <path fill-rule="evenodd" clip-rule="evenodd" d="M90.4059 14.6063C90.4059 19.9467 91.8934 35.0014 92.2627 41.8661C92.4524 45.3733 91.8934 45.4131 94.4091 47.0073L103.494 52.4971C105.251 53.623 107.537 54.5695 107.986 55.6256C107.597 56.1537 100.239 60.9062 99.2408 61.5339C98.3623 62.0819 97.8832 62.4107 97.0945 62.879C95.5571 63.7856 93.311 65.051 93.0314 66.406L90.5656 82.5965C90.2761 84.7088 89.9167 86.7313 89.6372 88.8436C89.3477 90.9458 88.7487 93.3769 88.7288 95.6187L94.0098 95.4493L98.1926 68.5481C99.2608 61.7132 97.8632 63.9052 104.502 59.4715C106.479 58.1563 112.588 54.6591 113.836 53.2145C113.467 52.5369 102.385 45.7718 100.479 44.7555C97.5937 43.2212 98.4023 43.4703 98.1727 39.7041L96.1561 12.3844C95.5471 12.3446 91.0748 14.128 90.4159 14.6162L90.4059 14.6063Z" fill="#FEEA05"/>
  <path fill-rule="evenodd" clip-rule="evenodd" d="M57.532 27.9474L57.7117 48.751L78.6759 44.5365L78.6061 27.1703C77.458 26.8714 59.5286 27.6485 57.532 27.9474Z" fill="#F7BA09"/>
  <path fill-rule="evenodd" clip-rule="evenodd" d="M97.943 61.0358C97.0345 61.3646 91.1646 64.7621 90.7952 65.9976C90.1163 68.2692 89.6172 73.8985 89.1879 76.5588C88.6189 80.1456 88.1197 83.6029 87.5807 87.1598C87.0715 90.5275 86.2629 94.3933 86.0233 97.7609L117.15 97.8107C117.739 92.7094 117.899 87.3491 118.388 82.2778C118.598 80.0559 119.706 79.8268 122.112 77.6149C123.24 76.5787 125.506 74.3569 126.594 73.769L133.033 79.4282C134.061 80.3249 134.571 80.3847 134.71 82.0685C135.14 87.2595 135.359 92.3806 135.908 97.6314C138.075 98.1594 163.821 98.0498 167.125 97.741C166.806 95.5191 162.553 66.2566 162.104 65.5193L154.347 60.438C154.786 61.2052 156.903 62.7395 157.801 63.2975L162.034 66.0175C162.183 67.7212 163.152 76.5687 163.671 78.0134L165.408 89.6308C165.628 93.6659 166.466 93.7656 166.496 97.3922C162.523 97.4122 144.843 97.6513 142.247 97.2229L140.401 87.4189C140.071 85.6952 139.562 84.3601 139.352 82.5966C138.723 77.3558 137.166 77.8042 132.344 72.2845C130.527 70.1922 128.541 68.6578 126.884 66.416C125.386 66.8445 122.132 71.0988 120.924 72.404L118.149 75.5724C117.2 76.7082 116.352 77.5352 115.523 78.6112C114.684 79.6972 114.615 81.5704 114.215 83.294C113.856 84.8682 113.467 86.6417 113.057 88.0466L110.621 97.2328C108.285 97.731 90.7652 97.2926 86.6223 97.3922C86.6123 96.1767 88.3693 82.8158 88.9383 81.5305C89.6272 80.0061 89.2179 79.6275 89.5972 76.6285C90.0065 73.3406 90.6255 69.415 91.3143 66.4061C91.7635 64.4532 95.4972 63.4469 97.9131 61.0258L97.943 61.0358Z" fill="#EE861A"/>
  <path fill-rule="evenodd" clip-rule="evenodd" d="M178.805 82.8954C178.266 73.4999 178.486 63.0583 178.236 53.4835C178.196 52.1284 177.428 33.0186 178.146 31.2053C178.416 30.5278 178.546 31.5441 178.436 30.4581C178.346 29.5613 179.035 30.5776 178.166 30.0396C177.068 29.3621 174.572 30.3385 174.123 31.3348C173.604 32.4806 174.562 52.527 174.572 55.6156L175.151 88.0066C175.211 90.9658 174.133 92.8788 174.373 95.5888C177.148 95.6884 177.448 95.7781 177.827 94.8117C179.175 91.3843 179.025 86.4424 178.815 82.8755L178.805 82.8954Z" fill="#FEEA05"/>
  <path fill-rule="evenodd" clip-rule="evenodd" d="M72.6461 95.0309L76.0803 95.1006C76.5994 86.8111 75.9904 66.4558 75.9405 55.8946C75.9106 50.4048 76.9288 50.8332 72.6062 51.7499L72.6561 95.0209L72.6461 95.0309Z" fill="#FEEA05"/>
  <path fill-rule="evenodd" clip-rule="evenodd" d="M72.6461 42.9222L76.0803 42.992C76.2899 38.4387 75.9904 38.1 75.9405 33.9552C75.9106 28.4653 76.9288 28.8938 72.6062 29.8104L72.6561 42.9222H72.6461Z" fill="#FEEA05"/>
  <path fill-rule="evenodd" clip-rule="evenodd" d="M222.94 95.2004L226.424 94.9114C226.504 93.7059 227.043 90.5375 227.073 88.1562C227.263 74.1776 226.544 43.2612 226.504 34.2443C226.474 28.7545 227.442 29.5416 223.12 30.4582L223.898 88.2559L222.94 95.2103V95.2004Z" fill="#FEEA05"/>
  <path fill-rule="evenodd" clip-rule="evenodd" d="M41.619 32.6402C39.9818 30.9464 40.0617 29.9401 36.6775 30.0198C36.8871 31.5542 40.0317 34.055 41.6989 35.7986C42.8669 37.0241 43.376 36.9444 43.406 39.2559L43.995 53.912C44.7637 63.6562 45.4725 63.4868 40.471 70.4114C39.3928 71.9059 39.7722 72.5336 37.6957 72.6731C32.9438 73.0119 16.1225 73.6794 13.4271 74.1676C13.1875 77.8441 13.6966 82.0088 13.7765 85.6853C14.0261 96.0672 13.4471 95.1406 17.031 95.031C17.1308 91.7231 16.981 87.678 16.7914 84.3502C16.7015 82.7262 16.7215 80.9328 16.5717 79.2788L16.402 75.4529C16.5318 74.6857 16.3122 75.1241 16.7414 74.7256C17.6 74.0381 38.6241 73.4403 41.9884 73.0816C42.248 72.962 47.2794 65.1009 47.3992 63.8156C47.6987 60.5676 46.7004 47.4159 46.5806 42.215C46.4808 37.7912 46.7303 37.7514 45.2229 36.2868L41.6091 32.6202L41.619 32.6402Z" fill="#FCE505"/>
  <path fill-rule="evenodd" clip-rule="evenodd" d="M15.6433 60.7269C16.392 57.7179 15.0543 51.7698 16.1924 46.4792C11.9396 46.3198 12.6484 46.6486 12.7083 53.5831C12.7782 61.9524 12.1892 61.225 15.6533 60.7269H15.6433Z" fill="#FCE505"/>
  </svg>
  